<?xml version="1.0" encoding="utf-8"?>
<svg xmlns="http://www.w3.org/2000/svg" viewBox="12.191 9.863 176.598 112.587">
  <defs>
    <clipPath clipPathUnits="userSpaceOnUse" id="clipPath8">
      <path d="M -166.18 279.277 L 367.158 279.277 L 367.158 -120.72 L -166.18 -120.72 L -166.18 279.277 Z" id="path8" style="stroke-width: 1.333;"/>
    </clipPath>
  </defs>
  <path id="path6" d="M 12.191 121.848 C 24.005 121.783 35.807 119.643 46.997 115.864 C 52.225 114.056 57.31 111.814 62.199 109.236 C 67.647 106.247 72.866 102.811 77.79 99.032 C 79.963 97.346 82.11 95.616 84.165 93.783 C 87.815 90.379 91.502 87.028 94.941 83.395 C 96.281 81.992 97.601 80.575 98.931 79.154 C 103.242 74.31 108.357 69.906 113.17 65.351 C 114.466 64.29 115.757 63.215 117.021 62.14 C 121.543 58.262 126.331 54.63 131.466 51.594 C 148.362 42.259 171.269 39.842 188.789 39.716 L 188.789 9.931 C 176.975 9.996 165.173 12.138 153.982 15.916 C 148.757 17.723 143.669 19.966 138.782 22.542 C 133.334 25.532 128.115 28.967 123.19 32.746 C 121.015 34.434 118.87 36.162 116.815 37.998 C 113.165 41.399 109.478 44.752 106.039 48.383 C 104.699 49.786 103.379 51.204 102.05 52.626 C 101.801 52.892 101.399 53.316 101.041 53.703 L 83.958 69.639 C 79.437 73.518 74.649 77.15 69.513 80.186 C 62.718 84.295 55.178 87.215 47.318 88.463 C 44.098 88.976 40.83 89.091 37.574 89.128 L 37.574 42.582 C 40.83 42.619 44.098 42.711 47.318 43.224 C 55.178 44.472 62.718 47.416 69.513 51.524 C 74.649 54.56 79.437 58.17 83.958 62.048 C 84.974 62.91 86.001 63.772 87.037 64.627 L 99.289 53.152 C 97.959 51.731 96.281 49.719 94.941 48.315 C 91.502 44.683 87.815 41.331 84.165 37.927 C 82.11 36.094 79.963 34.342 77.79 32.655 C 72.865 28.876 67.647 25.463 62.199 22.474 C 57.31 19.896 52.225 17.655 46.997 15.847 C 35.807 12.068 24.005 9.927 12.191 9.863 L 12.191 121.848 Z" style="stroke: none; stroke-width: 1.333; fill: rgb(193, 39, 41);"/>
  <path id="path7" d="M 188.428 122.45 C 176.616 122.386 164.81 120.244 153.622 116.466 C 148.394 114.659 143.308 112.416 138.42 109.839 C 132.972 106.85 127.753 103.415 122.829 99.636 C 120.654 97.948 118.509 96.22 116.454 94.386 C 112.804 90.983 109.117 87.631 105.677 83.999 C 104.34 82.595 103.017 81.178 101.688 79.756 L 100.961 78.936 L 112.985 67.168 C 114.053 68.047 115.616 69.355 116.66 70.242 C 121.181 74.12 125.969 77.752 131.105 80.788 C 148.001 90.122 170.906 92.54 188.428 92.666 L 188.428 122.45 Z" style="fill: rgb(106, 101, 103); fill-opacity: 1; fill-rule: nonzero; stroke: none; stroke-width: 1.333;" clip-path="url(#clipPath8)"/>
</svg>